PathFileType	4	(x/y/z)	S01_PSF_T09.trc
DataRate	CameraRate	NumFrames	NumMarkers	Units	OrigDataRate	OrigDataStartFrame	OrigNumFrames
240	240	7	51	mm	240	51	402
Frame#	Time	Sternum			R.Acromium			L.Acromium			Top.Head			R.ASIS			L.ASIS			R.PSIS			L.PSIS			R.Great.Tro			L.Great.Tro			R.Iliac.Crest			L.Iliac.Crest			V.Sacral			R.Thigh.Upper.Post			R.Thigh.Lower.Ant			R.Thigh.Lower.Post			R.Thigh.Upper.Ant			R.Knee.Lat			R.Knee.Med			R.Shank.Upper.Post			R.Shank.Lower.Ant			R.Shank.Lower.Post			R.Shank.Upper.Ant			R.Ankle.Lat			R.Ankle.Med			R.Heel.Upper			R.Heel.Med			R.Heel.Lat			R.Toe.Lat			R.Toe.Med			R.Toe.Tip			L.Thigh.Upper.Post			L.Thigh.Lower.Ant			L.Thigh.Lower.Post			L.Thigh.Upper.Ant			L.Knee.Lat			L.Knee.Med			L.Shank.Upper.Post			L.Shank.Lower.Ant			L.Shank.Lower.Post			L.Shank.Upper.Ant			L.Ankle.Lat			L.Ankle.Med			L.Heel.Upper			L.Heel.Med			L.Heel.Lat			L.Toe.Lat			L.Toe.Med			L.Toe.Tip			Cervical.Spine			Back			
		X1	Y1	Z1	X2	Y2	Z2	X3	Y3	Z3	X4	Y4	Z4	X5	Y5	Z5	X6	Y6	Z6	X7	Y7	Z7	X8	Y8	Z8	X9	Y9	Z9	X10	Y10	Z10	X11	Y11	Z11	X12	Y12	Z12	X13	Y13	Z13	X14	Y14	Z14	X15	Y15	Z15	X16	Y16	Z16	X17	Y17	Z17	X18	Y18	Z18	X19	Y19	Z19	X20	Y20	Z20	X21	Y21	Z21	X22	Y22	Z22	X23	Y23	Z23	X24	Y24	Z24	X25	Y25	Z25	X26	Y26	Z26	X27	Y27	Z27	X28	Y28	Z28	X29	Y29	Z29	X30	Y30	Z30	X31	Y31	Z31	X32	Y32	Z32	X33	Y33	Z33	X34	Y34	Z34	X35	Y35	Z35	X36	Y36	Z36	X37	Y37	Z37	X38	Y38	Z38	X39	Y39	Z39	X40	Y40	Z40	X41	Y41	Z41	X42	Y42	Z42	X43	Y43	Z43	X44	Y44	Z44	X45	Y45	Z45	X46	Y46	Z46	X47	Y47	Z47	X48	Y48	Z48	X49	Y49	Z49	X50	Y50	Z50	X51	Y51	Z51	

51	0.20833	-1121	1287.6	280.88	-1227.8	1545.1	453.08	-1243.7	1554.9	126.38	-1216.7	1866.2	275.97	NaN	NaN	NaN	NaN	NaN	NaN	-1414.6	1076.6	339.72	-1412.7	1076.9	236.35	-1266.2	985.86	523.7	-1264.4	989.45	96.947	-1276	1140.3	503.46	-1269.1	1121.7	99.27	-1426.6	1040.7	284.34	-1193	683	519.47	-1105	628.19	513.76	-1167.7	597.65	508.52	-1128.3	716.22	522.49	-1144.7	541.43	512.52	-1106.4	538.41	363.32	-1280	460.09	507.83	-1288.4	355.59	471.77	-1331.3	412.47	491.86	-1241.7	408.57	494.55	-1465.9	268.56	443.25	-1423.6	243.74	357.67	-1523.8	296.98	371.12	-1521.1	264.4	338.44	-1546.3	271.83	402	-1448.6	120.89	486.6	-1400.1	96.491	373.2	NaN	NaN	NaN	-1262.3	699.94	127.75	-1169.6	639.26	132.05	-1243.1	613.08	149	-1198.7	728.22	109.47	-1181.9	534.01	145.97	-1162.6	543.78	287.09	-1236.4	393.71	129.98	-1175.7	304.97	159.21	-1236.1	315.38	135.52	-1174.2	380.93	148.43	-1255.1	105.76	175.64	-1230.1	115.98	275.33	-1326.9	75.137	222.01	-1316	50.248	255.22	-1318.3	49.903	193.04	-1107	40.541	160.67	-1082.3	46.647	282.15	-1018.1	56.825	230.93	-1324.9	1608.7	294.57	-1424.3	1302.9	313.8
52	0.2125	-1116.3	1288.4	281.11	-1222.9	1546	453.16	-1238	1555.9	126.39	-1211.1	1867	276.23	NaN	NaN	NaN	NaN	NaN	NaN	-1409.2	1077.5	339.83	-1407.6	1077.8	236.47	-1260.5	987.28	523.74	-1259.5	990.07	96.96	-1270.4	1141.8	503.05	-1263.5	1122.8	99.282	-1421.4	1041.6	284.52	-1184.7	684.68	519.64	-1096.2	630.74	513.46	-1158.6	599.6	508.5	-1120.3	718.56	522.43	-1135	543.45	512.24	-1096.9	541.07	363.18	-1269.4	459.92	507.49	-1275.8	355.35	471.33	-1319.8	411.43	491.47	-1230	409.1	494.32	-1451.5	264.9	442.83	-1408.9	241.24	357.2	-1510.6	292.24	370.92	-1506.8	259.44	338.02	-1532.1	266.36	401.85	-1430.7	117.78	486.05	-1381.8	94.808	372.43	NaN	NaN	NaN	-1260	700.7	127.73	-1167.8	639.22	131.79	-1241.4	613.66	148.88	-1196.3	728.45	109.24	-1180.9	534.04	145.66	-1161.3	543.59	286.92	-1235.9	393.83	129.82	-1175.4	304.94	158.96	-1235.8	315.51	135.41	-1173.8	380.92	148.16	-1255.1	105.85	175.65	-1230	116.07	275.27	-1326.8	75.222	222.03	-1316	50.358	255.24	-1318.3	50.003	193.05	-1107	40.519	160.64	-1082.3	46.656	282.12	-1018.2	56.822	230.9	-1319.1	1609.5	294.38	-1419	1303.9	313.25
53	0.21667	-1111.4	1289.2	281.35	-1218	1546.8	453.24	-1232.3	1556.9	126.4	-1205.5	1867.8	276.52	NaN	NaN	NaN	NaN	NaN	NaN	-1403.7	1078.4	339.97	-1402.4	1078.7	236.62	-1254.7	988.65	523.77	-1254.6	990.65	96.983	-1264.7	1143.2	502.63	-1258	1123.7	99.298	-1416.2	1042.6	284.72	-1176.5	686.32	519.81	-1087.5	633.25	513.12	-1149.5	601.52	508.45	-1112.4	720.84	522.35	-1125.4	545.43	511.92	-1087.6	543.69	363.02	-1258.7	459.6	507.16	-1263.2	355	470.87	-1308.2	410.23	491.08	-1218.3	409.54	494.06	-1437.1	261.07	442.41	-1394.1	238.61	356.73	-1497.2	287.28	370.73	-1492.4	254.29	337.63	-1517.8	260.67	401.71	-1412.6	114.6	485.5	-1363.4	93.09	371.63	NaN	NaN	NaN	-1257.7	701.46	127.72	-1166	639.18	131.55	-1239.7	614.23	148.77	-1194	728.68	109.02	-1180	534.07	145.35	-1160.1	543.39	286.76	-1235.4	393.95	129.67	-1175.2	304.92	158.72	-1235.6	315.63	135.3	-1173.3	380.9	147.91	-1255	105.93	175.67	-1229.9	116.16	275.22	-1326.8	75.307	222.06	-1316	50.465	255.25	-1318.3	50.1	193.07	-1107	40.499	160.62	-1082.3	46.666	282.09	-1018.2	56.822	230.87	-1313.3	1610.2	294.21	-1413.6	1304.8	312.73
54	0.22083	-1106.3	1290.1	281.59	-1213	1547.6	453.33	-1226.6	1557.8	126.43	-1199.8	1868.5	276.85	-1164.2	1043.5	443.45	NaN	NaN	NaN	-1398.2	1079.1	340.14	-1397.3	1079.6	236.8	-1248.9	989.95	523.79	-1249.7	991.21	97.018	-1259	1144.5	502.21	-1252.5	1124.6	99.318	-1411	1043.4	284.95	-1168.3	687.92	519.97	-1078.9	635.71	512.74	-1140.6	603.4	508.37	-1104.6	723.08	522.24	-1115.9	547.36	511.56	-1078.4	546.25	362.84	-1248.1	459.15	506.84	-1250.6	354.56	470.41	-1296.6	408.87	490.68	-1206.6	409.9	493.79	-1422.5	257.09	441.99	-1379.1	235.86	356.26	-1483.6	282.1	370.54	-1478.1	248.97	337.3	-1503.3	254.76	401.56	-1394.2	111.38	484.94	-1344.8	91.35	370.84	-1298.6	60.954	435.66	-1255.5	702.21	127.72	-1164.2	639.13	131.31	-1238	614.79	148.66	-1191.6	728.89	108.8	-1179	534.09	145.05	-1158.9	543.18	286.62	-1235	394.07	129.52	-1174.9	304.89	158.49	-1235.3	315.75	135.19	-1172.8	380.89	147.66	-1255	106.01	175.68	-1229.9	116.25	275.16	-1326.7	75.393	222.08	-1316	50.571	255.26	-1318.3	50.195	193.08	-1107	40.479	160.6	-1082.3	46.678	282.06	-1018.2	56.824	230.84	-1307.6	1610.9	294.05	-1408.2	1305.6	312.23
55	0.225	-1101.1	1290.9	281.82	-1208.1	1548.3	453.43	-1220.9	1558.6	126.46	-1194.2	1869.2	277.21	-1159.6	1044.3	443.1	NaN	NaN	NaN	-1392.8	1079.8	340.33	-1392.2	1080.4	237	-1243	991.19	523.81	-1244.8	991.72	97.062	-1253.2	1145.7	501.79	-1247.2	1125.5	99.339	-1405.8	1044.2	285.21	-1160.2	689.48	520.12	-1070.3	638.11	512.32	-1131.8	605.23	508.26	-1096.9	725.24	522.1	-1106.6	549.25	511.17	-1069.3	548.76	362.63	-1237.6	458.57	506.52	-1237.9	354.03	469.92	-1284.9	407.36	490.27	-1194.9	410.17	493.49	-1407.8	252.97	441.57	-1364	233	355.79	-1469.9	276.72	370.35	-1463.7	243.49	337.02	-1488.6	248.67	401.41	-1375.7	108.13	484.39	-1326	89.6	370.04	-1281	60.715	434.91	-1253.2	702.95	127.73	-1162.3	639.08	131.09	-1236.4	615.35	148.55	-1189.3	729.1	108.6	-1178.1	534.12	144.76	-1157.8	542.96	286.5	-1234.5	394.19	129.36	-1174.6	304.86	158.27	-1235.1	315.87	135.07	-1172.4	380.87	147.43	-1254.9	106.09	175.7	-1229.8	116.34	275.1	-1326.7	75.478	222.11	-1315.9	50.673	255.27	-1318.2	50.285	193.1	-1107	40.462	160.58	-1082.3	46.691	282.02	-1018.2	56.829	230.81	-1301.9	1611.6	293.92	-1402.8	1306.4	311.77
56	0.22917	-1095.7	1291.7	282.05	-1203.1	1549	453.54	-1215.2	1559.4	126.5	-1188.6	1869.8	277.6	-1154.7	1045.2	442.73	NaN	NaN	NaN	-1387.3	1080.5	340.53	-1387.1	1081.1	237.23	-1237.1	992.36	523.83	-1239.9	992.2	97.116	-1247.3	1146.8	501.38	-1241.8	1126.3	99.359	-1400.5	1044.9	285.48	-1152.1	690.99	520.25	-1061.9	640.44	511.86	-1123.1	607.01	508.1	-1089.2	727.34	521.93	-1097.3	551.08	510.74	-1060.5	551.2	362.39	-1227	457.86	506.2	-1225.2	353.42	469.43	-1273.3	405.71	489.84	-1183.3	410.36	493.17	-1393	248.74	441.15	-1348.8	230.03	355.33	-1455.9	271.14	370.14	-1449.3	237.87	336.78	-1473.7	242.4	401.25	-1357.1	104.87	483.84	-1307	87.852	369.27	-1262.6	60.506	434.16	-1251	703.68	127.74	-1160.5	639.02	130.89	-1234.7	615.9	148.45	-1186.9	729.29	108.41	-1177.1	534.14	144.48	-1156.8	542.74	286.39	-1234	394.31	129.21	-1174.3	304.82	158.06	-1234.8	315.99	134.96	-1171.9	380.86	147.21	-1254.9	106.16	175.71	-1229.8	116.43	275.04	-1326.7	75.563	222.13	-1315.9	50.771	255.28	-1318.2	50.371	193.12	-1107	40.446	160.56	-1082.2	46.707	281.99	-1018.2	56.836	230.78	-1296.2	1612.2	293.8	-1397.4	1307.1	311.34
57	0.23333	-1090.3	1292.5	282.28	-1198.1	1549.6	453.65	-1209.6	1560.2	126.56	-1183	1870.4	278.02	-1149.7	1046	442.35	NaN	NaN	NaN	-1381.8	1081	340.76	-1382	1081.8	237.47	-1231.2	993.45	523.84	-1235.1	992.64	97.178	-1241.5	1147.8	501	-1236.6	1127	99.379	-1395.3	1045.6	285.78	-1144.2	692.45	520.37	-1053.6	642.71	511.35	-1114.4	608.74	507.91	-1081.5	729.37	521.74	-1088.2	552.85	510.28	-1051.8	553.57	362.13	-1216.5	457.03	505.89	-1212.5	352.73	468.93	-1261.5	403.93	489.41	-1171.7	410.47	492.82	-1378.1	244.39	440.73	-1333.4	226.98	354.86	-1441.7	265.39	369.92	-1434.8	232.11	336.59	-1458.7	235.98	401.08	-1338.2	101.63	483.31	-1287.9	86.117	368.52	-1243.7	60.338	433.41	-1248.7	704.41	127.76	-1158.7	638.96	130.69	-1233	616.44	148.35	-1184.6	729.47	108.24	-1176.2	534.17	144.2	-1155.7	542.5	286.29	-1233.5	394.42	129.06	-1174	304.78	157.86	-1234.5	316.1	134.84	-1171.5	380.85	146.99	-1254.8	106.23	175.73	-1229.7	116.52	274.98	-1326.6	75.646	222.15	-1315.9	50.865	255.29	-1318.2	50.453	193.13	-1107	40.431	160.55	-1082.2	46.725	281.95	-1018.2	56.845	230.75	-1290.6	1612.7	293.69	-1392	1307.7	310.94
